# xmcd
#
# Track frame offsets:
#	150
#	23864
#	46668
#	76903
#	80721
#	85409
#	110864
#	142720
#	147679
#	151479
#	189195
#	257101
#	279286
#	302998
#	324108
#
# Disc length: 4450 seconds
#
# Revision: 0
# Processed by: cddbd v1.4PL0 Copyright (c) Steve Scherf et al.
# Submitted via: audiograbber 1.81.02
#
DISCID=c511600f
DTITLE=Johnny Winter - Pieces And Bits
DYEAR=1900
DGENRE=
TTITLE0=Rock And Roll Hoochie Coo
TTITLE1=Stranger
TTITLE2=Life Is Hard
TTITLE3=Johnny Talks
TTITLE4=Mannish Boy (With Muddy Waters)
TTITLE5=Tell The Truth (With Edgar Winter)
TTITLE6=Love,Life And Money
TTITLE7=BB King Talks
TTITLE8=Jam With BB King
TTITLE9=Mad Dog
TTITLE10=When You Got A Good Friend
TTITLE11=Don't Take Advantage Of Me
TTITLE12=Mojo Boogie
TTITLE13=Highway 61 Revisited
TTITLE14=Outtro
EXTD=Ripped From DVD Disc By BurnBoy
EXTT0=
EXTT1=
EXTT2=
EXTT3=
EXTT4=
EXTT5=
EXTT6=
EXTT7=
EXTT8=
EXTT9=
EXTT10=
EXTT11=
EXTT12=
EXTT13=
EXTT14=
PLAYORDER=
